<svg xmlns="http://www.w3.org/2000/svg" width="1200" height="800" viewBox="0 0 1200 800" fill="none">
  <defs>
    <linearGradient id="g1" x1="0" y1="0" x2="1" y2="1">
      <stop offset="0%" stop-color="#2563EB" stop-opacity="0.42"/>
      <stop offset="100%" stop-color="#16A34A" stop-opacity="0.36"/>
    </linearGradient>
    <linearGradient id="g2" x1="0" y1="0" x2="1" y2="0">
      <stop offset="0%" stop-color="#16A34A" stop-opacity="0.45"/>
      <stop offset="100%" stop-color="#2563EB" stop-opacity="0.45"/>
    </linearGradient>
  </defs>

  <rect width="1200" height="800" fill="transparent"/>

  <g stroke="url(#g1)" stroke-width="3">
    <rect x="80" y="90" width="180" height="110" rx="14"/>
    <path d="M110 145H225"/>
    <path d="M110 165H190"/>
    <circle cx="900" cy="150" r="58"/>
    <rect x="820" y="480" width="220" height="140" rx="16"/>
    <path d="M850 540H1010"/>
  </g>

  <g stroke="url(#g2)" stroke-width="8" stroke-linecap="round" stroke-linejoin="round">
    <path d="M170 620L300 510L410 565L560 380L690 430L860 250"/>
    <path d="M835 255L862 250L855 275"/>
  </g>

  <g fill="#2563EB" fill-opacity="0.32" font-size="74" font-family="Segoe UI, Arial, sans-serif" font-weight="700">
    <text x="120" y="350">₹</text>
    <text x="1000" y="690">₹</text>
    <text x="650" y="120">%</text>
  </g>

  <g fill="#16A34A" fill-opacity="0.24">
    <circle cx="1020" cy="330" r="16"/>
    <circle cx="610" cy="510" r="12"/>
    <circle cx="270" cy="560" r="14"/>
  </g>

  <g fill="#0F172A" fill-opacity="0.1" font-size="56" font-family="Segoe UI, Arial, sans-serif" font-weight="700" transform="rotate(-14 600 410)">
    <text x="330" y="420">SMART RESELL</text>
    <text x="430" y="490">PROFIT TRACKER</text>
  </g>
</svg>
